<?xml version="1.0" encoding="UTF-8" standalone="no"?>
<!DOCTYPE svg PUBLIC "-//W3C//DTD SVG 1.1//EN" "http://www.w3.org/Graphics/SVG/1.1/DTD/svg11.dtd">
<svg version="1.1" xmlns="http://www.w3.org/2000/svg" xmlns:xlink="http://www.w3.org/1999/xlink" preserveAspectRatio="xMidYMid meet" viewBox="0 0 192 192" width="192" height="192"><defs><path d="M134.82 7.95L135.52 7.98L136.22 8.01L136.91 8.05L137.6 8.09L138.28 8.14L138.95 8.18L139.61 8.24L140.25 8.29L140.88 8.34L141.5 8.39L142.09 8.44L142.67 8.49L143.23 8.53L143.77 8.57L144.28 8.6L144.77 8.63L145.23 8.65L146.17 8.68L147.1 8.72L148.04 8.75L148.98 8.79L149.92 8.83L150.85 8.86L151.79 8.91L152.73 8.95L153.68 8.99L154.62 9.04L155.56 9.09L156.5 9.14L157.44 9.19L158.38 9.24L159.33 9.3L160.27 9.36L161.21 9.42L162.15 9.49L163.09 9.55L164.04 9.62L164.98 9.69L165.92 9.77L166.86 9.85L167.8 9.93L168.74 10.02L169.68 10.11L170.62 10.2L171.55 10.29L172.49 10.39L173.43 10.5L174.36 10.6L175.3 10.71L176.23 10.83L177.17 10.95L178.1 11.07L179.03 11.2L179.96 11.33L180.88 11.47L181.81 11.61L182.74 11.75L182.98 11.8L183.22 11.86L183.45 11.93L183.66 12.02L183.86 12.11L184.05 12.22L184.23 12.34L184.4 12.46L184.56 12.6L184.71 12.74L184.85 12.9L184.97 13.06L185.09 13.22L185.19 13.4L185.29 13.58L185.37 13.76L185.44 13.95L185.51 14.15L185.56 14.35L185.6 14.55L185.64 14.76L185.66 14.97L185.68 15.18L185.68 15.39L185.68 15.6L185.66 15.81L185.64 16.02L185.6 16.24L185.56 16.45L185.51 16.65L185.45 16.86L185.38 17.06L185.3 17.26L185.22 17.46L185.12 17.65L185.02 17.84L184.91 18.02L184.78 18.2L184.66 18.37L184.52 18.53L185.05 19.04L185.56 19.6L186.03 20.22L186.47 20.89L186.88 21.61L187.27 22.36L187.63 23.16L187.96 24L188.27 24.88L188.55 25.78L188.81 26.72L189.04 27.68L189.26 28.67L189.46 29.68L189.63 30.71L189.79 31.75L189.93 32.81L190.05 33.88L190.16 34.95L190.26 36.03L190.34 37.11L190.4 38.19L190.46 39.27L190.5 40.34L190.54 41.4L190.56 42.45L190.58 43.48L190.59 44.5L190.6 45.49L190.6 46.46L190.59 47.41L190.59 48.32L190.58 49.2L190.57 50.05L190.56 50.86L190.55 51.63L190.54 52.36L190.54 53.04L190.53 53.67L190.54 54.26L190.55 55.59L190.57 56.93L190.59 58.28L190.62 59.64L190.64 61L190.66 62.37L190.69 63.74L190.71 65.11L190.73 66.49L190.75 67.88L190.77 69.26L190.78 70.65L190.79 72.04L190.79 73.44L190.79 74.83L190.78 76.23L190.77 77.63L190.74 79.03L190.71 80.43L190.67 81.82L190.62 83.22L190.56 84.62L190.49 86.01L190.41 87.4L190.32 88.79L190.21 90.18L190.09 91.56L189.96 92.94L189.81 94.32L189.64 95.69L189.46 97.05L189.26 98.41L189.05 99.77L188.82 101.12L188.56 102.46L188.29 103.79L188 105.12L187.69 106.44L187.36 107.75L187 109.05L186.3 111.42L185.53 113.85L184.68 116.34L183.76 118.88L182.76 121.47L181.69 124.09L180.55 126.74L179.34 129.41L178.06 132.09L176.71 134.78L175.29 137.47L173.81 140.15L172.26 142.82L170.64 145.46L168.97 148.07L167.23 150.64L165.42 153.17L163.56 155.64L161.64 158.06L159.66 160.4L157.62 162.67L155.52 164.85L153.37 166.95L151.16 168.95L148.9 170.84L146.59 172.62L144.23 174.28L141.81 175.81L139.34 177.2L136.83 178.46L134.27 179.56L131.66 180.51L129 181.29L126.3 181.89L123.55 182.32L120.77 182.56L117.94 182.61L115.06 182.45L112.15 182.08L109.2 181.5L109.03 181.46L108.87 181.41L108.72 181.35L108.57 181.28L108.42 181.21L108.28 181.13L108.14 181.04L108.01 180.95L107.89 180.85L107.77 180.75L107.66 180.64L107.55 180.53L107.44 180.41L107.35 180.29L107.25 180.16L107.17 180.03L107.09 179.89L107.01 179.76L106.94 179.61L106.87 179.47L106.82 179.32L106.76 179.17L106.71 179.02L106.67 178.87L106.63 178.71L106.6 178.56L106.58 178.4L106.56 178.24L106.54 178.08L106.53 177.92L106.53 177.76L106.53 177.61L106.54 177.45L106.55 177.29L106.57 177.13L106.6 176.98L106.63 176.83L106.67 176.67L106.71 176.52L106.76 176.38L106.66 176.1L106.56 175.82L106.46 175.53L106.37 175.24L106.28 174.95L106.19 174.66L106.11 174.36L106.03 174.06L105.95 173.76L105.87 173.46L105.8 173.16L105.72 172.85L105.65 172.55L105.58 172.24L105.52 171.93L105.45 171.63L105.39 171.32L105.32 171.01L105.26 170.7L105.2 170.4L105.14 170.09L105.08 169.79L105.02 169.49L104.96 169.18L104.9 168.89L104.84 168.59L104.78 168.29L104.72 168L104.66 167.71L104.6 167.43L104.54 167.15L104.47 166.87L104.41 166.59L104.34 166.32L104.27 166.06L104.21 165.8L104.14 165.54L104.06 165.29L103.99 165.04L103.91 164.8L103.8 164.46L103.69 164.13L103.57 163.79L103.46 163.45L103.34 163.11L103.22 162.78L103.1 162.44L102.98 162.1L102.86 161.76L102.74 161.42L102.61 161.08L102.49 160.75L102.37 160.41L102.24 160.07L102.12 159.73L101.99 159.39L101.87 159.05L101.75 158.71L101.62 158.37L101.5 158.03L101.37 157.69L101.25 157.35L101.13 157L101.01 156.66L100.89 156.32L100.77 155.98L100.65 155.64L100.53 155.29L100.42 154.95L100.3 154.61L100.19 154.26L100.07 153.92L99.96 153.58L99.86 153.23L99.75 152.89L99.64 152.54L99.54 152.2L99.44 151.85L99.34 151.5L99.25 151.16L99.23 151.15L99.21 151.14L99.2 151.13L99.18 151.12L99.17 151.11L99.15 151.1L99.13 151.08L99.12 151.07L99.1 151.06L99.09 151.05L99.07 151.05L99.02 151.02L98.99 151L98.97 150.99L98.96 150.98L98.94 150.97L98.93 150.96L98.91 150.95L98.9 150.94L98.88 150.93L98.86 150.92L98.85 150.9L98.83 150.89L98.82 150.88L98.8 150.87L98.79 150.86L98.77 150.85L98.75 150.84L98.74 150.83L98.72 150.81L98.71 150.8L98.69 150.79L98.68 150.78L98.67 150.76L98.65 150.75L98.64 150.74L98.62 150.72L98.55 150.65L98.48 150.58L98.41 150.5L98.35 150.43L98.28 150.35L98.22 150.28L98.16 150.21L98.11 150.13L98.05 150.06L98 149.98L97.95 149.91L97.9 149.83L97.86 149.76L97.81 149.68L97.77 149.6L97.73 149.53L97.69 149.45L97.66 149.37L97.62 149.29L97.59 149.21L97.56 149.13L97.53 149.05L97.5 148.97L97.47 148.88L97.45 148.8L97.42 148.71L97.4 148.63L97.38 148.54L97.36 148.45L97.34 148.36L97.33 148.27L97.31 148.18L97.3 148.09L97.28 148L97.27 147.9L97.26 147.81L97.25 147.71L97.24 147.61L97.23 147.51L97.22 147.41L97.21 147.29L97.21 147.18L97.21 147.06L97.22 146.94L97.23 146.82L97.24 146.7L97.26 146.58L97.28 146.46L97.31 146.34L97.33 146.22L97.37 146.1L97.4 145.98L97.44 145.86L97.48 145.74L97.53 145.63L97.58 145.51L97.63 145.39L97.69 145.28L97.75 145.17L97.81 145.06L97.87 144.95L97.94 144.84L98.01 144.73L98.08 144.63L98.15 144.52L98.23 144.42L98.31 144.33L98.39 144.23L98.47 144.14L98.56 144.05L98.65 143.96L98.74 143.88L98.83 143.8L98.92 143.72L99.02 143.64L99.11 143.57L99.21 143.51L99.31 143.44L99.41 143.39L99.51 143.33L100.19 142.96L101.02 142.49L101.99 141.91L103.08 141.23L104.28 140.45L105.6 139.59L107.01 138.64L108.51 137.61L110.09 136.51L111.73 135.34L113.43 134.11L115.18 132.81L116.97 131.47L118.79 130.07L120.62 128.64L122.46 127.16L124.31 125.65L126.14 124.12L127.95 122.56L129.73 120.98L131.46 119.39L133.15 117.8L134.78 116.2L136.34 114.61L137.81 113.02L139.2 111.45L140.49 109.89L141.67 108.36L142.72 106.86L143.65 105.39L144.44 103.97L145.09 102.58L145.57 101.25L145.88 99.97L146.02 98.75L145.96 97.59L145.71 96.5L145.25 95.49L144.58 94.56L143.67 93.72L143.63 93.68L143.58 93.64L143.54 93.6L143.5 93.56L143.46 93.53L143.42 93.49L143.39 93.45L143.36 93.41L143.32 93.37L143.29 93.33L143.27 93.29L143.24 93.25L143.22 93.21L143.19 93.16L143.17 93.12L143.15 93.08L143.13 93.04L143.12 93L143.1 92.95L143.09 92.91L143.08 92.87L143.06 92.83L143.06 92.78L143.05 92.74L143.04 92.7L143.04 92.65L143.03 92.61L143.03 92.57L143.03 92.52L143.03 92.48L143.03 92.44L143.03 92.4L143.04 92.35L143.04 92.31L143.05 92.27L143.06 92.22L143.06 92.18L143.07 92.14L143.08 92.1L143.1 92.06L142.51 91.9L141.92 91.76L141.34 91.61L140.75 91.48L140.17 91.35L139.58 91.22L139 91.11L138.42 90.99L137.83 90.89L137.25 90.79L136.66 90.7L136.08 90.61L135.49 90.53L134.91 90.45L134.32 90.39L133.74 90.32L133.15 90.27L132.57 90.22L131.98 90.18L131.39 90.15L130.8 90.12L130.21 90.1L129.62 90.09L129.03 90.09L128.44 90.09L127.85 90.1L127.25 90.11L126.66 90.14L126.06 90.17L125.46 90.21L124.86 90.26L124.26 90.31L123.66 90.38L123.05 90.45L122.45 90.53L121.84 90.61L121.23 90.71L120.62 90.81L120.01 90.93L119.39 91.05L119.13 91.09L118.87 91.13L118.61 91.15L118.37 91.15L118.13 91.15L117.9 91.13L117.67 91.1L117.45 91.06L117.24 91L117.04 90.94L116.84 90.86L116.65 90.78L116.47 90.69L116.3 90.58L116.13 90.47L115.97 90.35L115.83 90.22L115.68 90.09L115.55 89.95L115.43 89.8L115.31 89.64L115.2 89.48L115.1 89.32L115.01 89.15L114.93 88.97L114.85 88.79L114.79 88.61L114.73 88.42L114.68 88.23L114.65 88.04L114.62 87.84L114.6 87.65L114.59 87.45L114.59 87.25L114.6 87.05L114.61 86.85L114.64 86.66L114.68 86.46L114.73 86.26L114.79 86.07L114.7 86L114.62 85.93L114.53 85.86L114.45 85.79L114.37 85.72L114.29 85.65L114.22 85.57L114.14 85.49L114.07 85.41L114 85.33L113.93 85.24L113.86 85.16L113.79 85.07L113.73 84.98L113.66 84.89L113.6 84.79L113.55 84.7L113.49 84.6L113.43 84.5L113.38 84.4L113.33 84.3L113.28 84.19L113.24 84.08L113.19 83.98L113.15 83.86L113.11 83.75L113.08 83.64L113.04 83.52L113.01 83.4L112.98 83.28L112.95 83.16L112.93 83.03L112.91 82.91L112.89 82.78L112.87 82.65L112.86 82.52L112.85 82.38L112.84 82.25L112.84 82.11L112.83 81.97L112.83 80.28L112.84 78.59L112.84 76.91L112.86 75.22L112.87 73.53L112.89 71.84L112.92 70.15L112.95 68.46L112.98 66.77L113.02 65.08L113.06 63.39L113.1 61.7L113.15 60.01L113.21 58.32L113.27 56.63L113.33 54.94L113.39 53.24L113.46 51.55L113.54 49.86L113.61 48.17L113.7 46.48L113.78 44.79L113.87 43.1L113.96 41.41L114.06 39.72L114.16 38.03L114.26 36.34L114.37 34.65L114.48 32.97L114.6 31.28L114.72 29.59L114.84 27.9L114.96 26.22L115.09 24.53L115.23 22.85L115.36 21.17L115.5 19.49L115.64 17.8L115.79 16.12L115.94 14.44L115.97 14.22L116 14L116.05 13.79L116.1 13.59L116.16 13.39L116.23 13.2L116.31 13.02L116.39 12.85L116.48 12.69L116.58 12.53L116.69 12.38L116.8 12.24L116.92 12.11L117.04 11.98L117.17 11.86L117.3 11.75L117.44 11.65L117.59 11.56L117.73 11.47L117.88 11.39L118.04 11.32L118.19 11.25L118.35 11.2L118.51 11.15L118.67 11.11L118.84 11.07L119 11.05L119.17 11.03L119.34 11.02L119.51 11.02L119.68 11.02L119.84 11.03L120.01 11.05L120.18 11.08L120.34 11.12L120.5 11.16L120.67 11.21L120.82 11.27L120.98 11.33L121.13 11.41L121.5 11.02L121.9 10.66L122.33 10.32L122.79 10.01L123.27 9.73L123.78 9.47L124.31 9.24L124.87 9.03L125.44 8.84L126.04 8.67L126.65 8.52L127.28 8.39L127.92 8.28L128.58 8.19L129.25 8.11L129.92 8.05L130.61 8L131.3 7.96L132 7.94L132.7 7.93L133.41 7.93L134.11 7.94L134.82 7.95ZM110.63 147.59L110.28 147.82L109.95 148.04L109.61 148.25L109.29 148.47L108.97 148.67L108.65 148.87L108.34 149.07L108.04 149.26L107.74 149.45L107.45 149.63L107.16 149.8L106.88 149.97L106.61 150.13L107.11 151.05L107.6 151.98L108.08 152.92L108.57 153.85L109.04 154.79L109.51 155.73L109.97 156.68L110.43 157.62L110.88 158.57L111.32 159.52L111.76 160.46L112.18 161.41L112.6 162.36L113.01 163.3L113.41 164.25L113.62 164.75L113.84 165.27L114.07 165.8L114.3 166.34L114.53 166.89L114.76 167.45L114.99 168.02L115.21 168.59L115.42 169.18L115.62 169.76L115.81 170.35L115.99 170.94L116.15 171.53L116.29 172.12L116.41 172.71L117.71 172.35L119 171.97L120.28 171.57L121.55 171.15L122.8 170.71L124.05 170.25L125.28 169.77L126.51 169.27L127.72 168.75L128.92 168.22L130.11 167.66L131.28 167.09L132.45 166.5L133.6 165.89L134.74 165.27L134.1 164.82L133.46 164.37L132.83 163.92L132.2 163.46L131.56 163L130.94 162.53L130.31 162.06L129.68 161.59L129.06 161.12L128.44 160.64L127.82 160.16L127.21 159.67L126.59 159.18L125.98 158.69L125.37 158.2L124.46 157.47L123.52 156.75L122.58 156.04L121.61 155.33L120.65 154.62L119.67 153.91L118.7 153.2L117.73 152.48L116.76 151.75L115.81 151.02L114.87 150.27L113.94 149.51L113.04 148.73L112.17 147.94L111.32 147.13L110.97 147.36L110.63 147.59ZM124.57 137.39L123.98 137.85L123.4 138.31L122.83 138.77L122.25 139.21L121.68 139.66L121.11 140.09L120.54 140.53L119.98 140.95L119.42 141.37L118.86 141.79L118.31 142.2L117.76 142.6L117.22 143L116.68 143.39L116.15 143.77L116.87 144.24L117.58 144.73L118.28 145.24L118.97 145.77L119.65 146.32L120.32 146.88L120.98 147.46L121.64 148.04L122.29 148.63L122.93 149.23L123.57 149.83L124.2 150.43L124.83 151.03L125.45 151.62L126.07 152.21L126.69 152.78L127.31 153.35L127.96 153.94L128.61 154.53L129.26 155.11L129.92 155.7L130.58 156.28L131.24 156.85L131.9 157.43L132.56 158L133.23 158.56L133.9 159.12L134.57 159.68L135.25 160.23L135.93 160.78L136.61 161.33L137.3 161.86L137.99 162.4L138.68 162.93L139.35 162.5L140.02 162.06L140.68 161.62L141.34 161.17L141.99 160.72L142.64 160.26L143.28 159.79L143.92 159.32L144.55 158.84L145.18 158.36L145.81 157.87L146.43 157.37L147.04 156.87L147.65 156.37L148.25 155.85L148.85 155.34L149.45 154.81L148.71 154.3L147.98 153.78L147.24 153.26L146.51 152.74L145.79 152.21L145.06 151.69L144.34 151.15L143.62 150.62L142.9 150.08L142.18 149.55L141.46 149L140.75 148.46L140.04 147.91L139.32 147.36L138.62 146.81L137.91 146.25L137.2 145.69L136.55 145.19L135.89 144.68L135.2 144.17L134.51 143.66L133.8 143.15L133.09 142.64L132.38 142.12L131.66 141.6L130.95 141.06L130.25 140.53L129.55 139.98L128.87 139.42L128.2 138.85L127.55 138.27L126.92 137.68L126.31 137.07L125.73 136.45L125.15 136.92L124.57 137.39ZM135.55 127.91L135.11 128.33L134.66 128.75L134.21 129.16L133.75 129.57L133.3 129.99L132.84 130.39L132.39 130.8L131.93 131.21L131.47 131.61L131.01 132.01L130.54 132.42L130.08 132.82L129.62 133.21L130.28 133.67L130.94 134.16L131.58 134.67L132.21 135.19L132.83 135.74L133.45 136.29L134.05 136.86L134.65 137.43L135.25 138.01L135.83 138.59L136.42 139.16L137 139.73L137.58 140.3L138.16 140.85L138.74 141.38L139.6 142.16L140.46 142.92L141.32 143.69L142.19 144.44L143.06 145.19L143.94 145.94L144.82 146.68L145.71 147.41L146.6 148.14L147.5 148.86L148.4 149.57L149.3 150.28L150.21 150.99L151.12 151.69L152.04 152.38L152.56 151.88L153.07 151.37L153.58 150.86L154.09 150.35L154.59 149.83L155.08 149.31L155.58 148.78L156.07 148.25L156.55 147.72L157.03 147.18L157.51 146.63L157.98 146.08L158.44 145.53L158.9 144.97L159.36 144.41L158.62 143.73L157.87 143.05L157.12 142.38L156.37 141.71L155.61 141.04L154.85 140.38L154.09 139.73L153.32 139.08L152.54 138.44L151.76 137.8L150.97 137.18L150.18 136.56L149.38 135.95L148.57 135.35L147.76 134.76L147.05 134.27L146.32 133.8L145.58 133.33L144.83 132.88L144.06 132.43L143.3 131.98L142.53 131.53L141.76 131.08L141.01 130.62L140.26 130.15L139.52 129.67L138.81 129.17L138.11 128.66L137.45 128.12L136.81 127.55L136.77 127.52L136.74 127.49L136.71 127.46L136.69 127.43L136.66 127.4L136.63 127.37L136.61 127.33L136.58 127.3L136.56 127.27L136.54 127.24L136.52 127.2L136.5 127.17L136.48 127.14L136.46 127.11L136.44 127.07L136 127.49L135.55 127.91ZM146.67 115.82L146.2 116.43L145.72 117.04L145.22 117.66L144.71 118.28L144.2 118.89L143.67 119.51L143.13 120.13L142.58 120.74L142.03 121.36L141.46 121.97L140.88 122.59L140.3 123.2L139.71 123.82L139.12 124.43L139.95 124.68L140.79 124.99L141.62 125.36L142.44 125.78L143.25 126.26L144.06 126.77L144.85 127.31L145.64 127.88L146.41 128.47L147.17 129.07L147.92 129.68L148.65 130.29L149.37 130.89L150.07 131.48L150.75 132.05L151.42 132.6L152.07 133.13L152.72 133.66L153.37 134.2L154.01 134.75L154.65 135.29L155.29 135.84L155.93 136.4L156.56 136.95L157.19 137.51L157.81 138.07L158.44 138.64L159.06 139.21L159.68 139.78L160.29 140.35L160.91 140.93L161.52 141.51L161.97 140.89L162.42 140.27L162.86 139.64L163.3 139.02L163.74 138.39L164.17 137.75L164.59 137.12L165.01 136.47L165.43 135.83L165.84 135.18L166.24 134.53L166.64 133.87L167.03 133.2L167.42 132.54L167.8 131.86L168.17 131.19L168.1 131.18L168.04 131.17L167.98 131.16L167.91 131.14L167.85 131.13L167.78 131.11L167.72 131.09L167.65 131.06L167.59 131.03L167.53 131L167.46 130.97L167.4 130.93L167.34 130.88L167.28 130.84L167.21 130.79L167.15 130.73L166.43 130.06L165.7 129.38L164.98 128.7L164.25 128.03L163.52 127.35L162.79 126.68L162.06 126.01L161.32 125.34L160.58 124.68L159.84 124.02L159.09 123.36L158.35 122.71L157.59 122.06L156.83 121.42L156.07 120.79L155.3 120.16L154.84 119.79L154.37 119.43L153.9 119.08L153.42 118.72L152.94 118.37L152.45 118.03L151.97 117.68L151.48 117.34L150.99 117L150.49 116.66L150 116.32L149.51 115.98L149.02 115.63L148.54 115.29L148.05 114.94L147.57 114.59L147.13 115.2L146.67 115.82ZM153.22 99.42L153.29 100.14L153.31 100.86L153.28 101.6L153.21 102.36L153.09 103.12L152.93 103.9L152.73 104.68L152.49 105.48L152.2 106.28L151.88 107.1L151.53 107.92L151.13 108.75L150.71 109.59L150.25 110.43L151.62 111.27L152.98 112.18L154.31 113.16L155.62 114.2L156.91 115.28L158.17 116.41L159.41 117.57L160.63 118.76L161.83 119.97L163 121.18L164.16 122.4L165.29 123.61L166.41 124.8L167.5 125.98L168.57 127.12L169.62 128.22L169.63 128.23L169.63 128.23L169.63 128.24L169.63 128.24L169.64 128.24L169.64 128.25L169.64 128.26L169.65 128.26L169.65 128.27L169.65 128.27L169.66 128.28L170.03 127.51L170.4 126.75L170.76 125.97L171.12 125.2L171.47 124.42L171.81 123.64L172.15 122.85L172.48 122.06L172.8 121.27L173.11 120.47L173.42 119.67L173.72 118.86L174.02 118.05L174.3 117.24L174.58 116.42L174.85 115.6L173.47 114.53L172.09 113.45L170.71 112.36L169.33 111.28L167.95 110.19L166.58 109.1L165.2 108.01L163.83 106.91L162.46 105.81L161.1 104.71L159.73 103.6L158.37 102.49L157.01 101.38L155.65 100.27L154.3 99.15L152.94 98.03L153.11 98.72L153.22 99.42ZM124.08 53.37L124.08 53.72L124.07 54.07L124.07 54.43L124.06 54.78L124.05 55.13L124.05 55.48L124.04 55.84L124.04 56.19L124.03 56.54L124.03 56.89L124.02 57.25L124.01 57.6L124.01 57.95L124 58.3L123.99 58.66L123.99 59.01L123.98 59.36L123.98 59.71L123.97 60.07L123.96 60.42L123.96 60.77L123.95 61.12L123.94 61.47L123.94 61.83L123.93 62.18L123.93 62.53L123.92 62.88L123.91 63.24L123.91 63.59L123.9 63.94L123.89 64.29L123.89 64.65L123.94 64.65L123.99 64.66L124.05 64.67L124.1 64.68L124.16 64.68L124.21 64.69L124.26 64.71L124.32 64.72L124.37 64.73L124.42 64.74L124.48 64.76L124.53 64.78L124.58 64.79L124.63 64.81L124.69 64.83L124.74 64.85L124.79 64.87L124.85 64.9L124.9 64.92L124.95 64.95L125 64.97L125.05 65L125.11 65.03L125.16 65.06L125.21 65.1L125.26 65.13L125.31 65.17L125.36 65.21L125.41 65.24L125.46 65.28L125.51 65.33L125.56 65.37L125.61 65.42L125.66 65.46L126.13 65.93L126.6 66.39L127.07 66.85L127.54 67.31L128 67.77L128.47 68.24L128.94 68.7L129.41 69.16L129.88 69.62L130.35 70.08L130.82 70.54L131.3 71L131.77 71.46L132.24 71.92L132.71 72.38L133.18 72.83L133.65 73.29L134.12 73.75L134.59 74.21L135.06 74.67L135.54 75.12L136.01 75.58L136.48 76.04L136.95 76.5L137.42 76.95L137.9 77.41L138.37 77.87L138.84 78.32L139.31 78.78L139.79 79.23L140.26 79.69L140.73 80.15L141.21 80.6L141.68 81.06L141.93 81.1L142.18 81.14L142.43 81.18L142.68 81.22L142.93 81.27L143.17 81.31L143.42 81.36L143.67 81.4L143.92 81.45L144.16 81.5L144.41 81.55L144.66 81.6L144.9 81.66L145.15 81.71L145.39 81.76L145.64 81.82L145.88 81.88L146.13 81.93L146.37 81.99L146.61 82.05L146.85 82.12L147.1 82.18L147.34 82.24L147.58 82.31L147.82 82.37L148.06 82.44L148.3 82.51L148.54 82.58L148.78 82.65L149.01 82.72L149.25 82.79L149.49 82.87L149.72 82.94L149.96 83.02L150.15 83.08L150.34 83.16L150.52 83.23L150.71 83.32L150.89 83.41L151.07 83.5L151.24 83.61L151.42 83.71L151.59 83.83L151.75 83.94L151.91 84.07L152.07 84.2L152.22 84.33L152.37 84.47L152.51 84.61L152.65 84.76L152.78 84.91L152.9 85.07L153.02 85.23L153.13 85.4L153.24 85.57L153.34 85.74L153.43 85.92L153.51 86.1L153.59 86.28L153.66 86.47L153.72 86.67L153.77 86.86L153.81 87.06L153.85 87.26L153.87 87.47L153.89 87.68L153.9 87.89L153.89 88.1L153.89 88.23L153.88 88.35L153.87 88.47L153.86 88.59L153.84 88.71L153.83 88.82L153.81 88.93L153.79 89.04L153.77 89.15L153.75 89.25L153.73 89.35L153.7 89.46L153.67 89.56L153.64 89.65L153.61 89.75L153.58 89.85L153.54 89.94L153.51 90.03L153.47 90.13L153.43 90.22L153.38 90.31L153.34 90.4L153.29 90.49L153.24 90.58L153.19 90.67L153.14 90.76L153.08 90.85L153.03 90.94L152.97 91.03L152.91 91.12L152.85 91.21L152.78 91.3L152.71 91.39L152.65 91.49L153.31 92.11L153.98 92.74L154.65 93.36L155.33 93.98L156 94.6L156.67 95.22L157.35 95.84L158.02 96.46L158.7 97.08L159.37 97.7L160.05 98.32L160.73 98.93L161.4 99.55L162.08 100.16L162.76 100.78L163.44 101.39L164.13 102L164.81 102.61L165.49 103.23L166.18 103.84L166.86 104.45L167.55 105.05L168.23 105.66L168.92 106.27L169.61 106.88L170.3 107.48L170.99 108.09L171.68 108.69L172.37 109.29L173.06 109.9L173.75 110.5L174.44 111.1L175.14 111.7L175.83 112.3L175.92 112.01L176 111.72L176.08 111.43L176.16 111.14L176.24 110.84L176.32 110.55L176.4 110.26L176.47 109.97L176.55 109.67L176.63 109.38L176.7 109.09L176.77 108.79L176.85 108.5L176.92 108.2L176.99 107.91L177.06 107.61L177.13 107.32L177.2 107.02L177.27 106.72L177.34 106.43L177.4 106.13L177.47 105.83L177.53 105.53L177.6 105.24L177.66 104.94L177.72 104.64L177.78 104.34L177.84 104.04L177.9 103.74L177.95 103.44L178.01 103.14L178.06 102.83L178.12 102.53L178.17 102.23L177.25 101.44L176.32 100.65L175.4 99.85L174.49 99.05L173.57 98.25L172.66 97.45L171.75 96.64L170.84 95.84L169.93 95.02L169.03 94.21L168.13 93.4L167.23 92.58L166.33 91.76L165.43 90.94L164.54 90.12L163.64 89.29L162.75 88.47L161.86 87.64L160.97 86.81L160.08 85.98L159.19 85.15L158.3 84.32L157.41 83.49L156.53 82.66L155.64 81.82L154.76 80.99L153.87 80.15L152.99 79.32L152.11 78.48L151.22 77.64L150.34 76.81L149.46 75.97L148.57 75.14L147.69 74.3L147.02 73.66L146.34 73.03L145.65 72.4L144.97 71.77L144.28 71.14L143.58 70.51L142.88 69.88L142.18 69.25L141.48 68.63L140.78 68L140.07 67.37L139.37 66.75L138.66 66.12L137.95 65.5L137.24 64.87L136.53 64.24L135.82 63.61L135.11 62.98L134.4 62.35L133.7 61.72L132.99 61.09L132.29 60.46L131.59 59.82L130.89 59.18L130.19 58.54L129.5 57.9L128.81 57.25L128.12 56.61L127.44 55.96L126.76 55.31L126.08 54.65L125.41 53.99L124.75 53.33L124.09 52.66L124.09 53.02L124.08 53.37ZM123.48 19.8L123.53 20.47L123.57 21.14L123.61 21.8L123.65 22.47L123.69 23.14L123.73 23.81L123.76 24.47L123.79 25.14L123.83 25.81L123.86 26.48L123.88 27.15L123.91 27.81L123.94 28.48L123.96 29.15L123.98 29.82L124 30.49L124.02 31.16L124.04 31.83L124.06 32.5L124.07 33.16L124.09 33.83L124.1 34.5L124.11 35.17L124.12 35.84L124.13 36.51L124.14 37.18L124.15 37.85L124.15 38.52L124.16 39.19L124.16 39.86L124.16 40.53L124.17 41.2L124.17 41.87L124.17 42.54L124.17 43.21L124.17 43.88L124.16 44.55L124.16 45.22L124.9 45.76L125.63 46.31L126.35 46.87L127.08 47.44L127.79 48.02L128.5 48.61L129.21 49.21L129.91 49.82L130.6 50.43L131.29 51.06L131.98 51.69L132.66 52.33L133.34 52.97L134.02 53.62L134.69 54.28L135.36 54.94L136.02 55.61L136.69 56.28L137.35 56.95L138 57.63L138.66 58.31L139.31 58.99L139.95 59.68L140.6 60.36L141.24 61.05L141.89 61.74L142.53 62.42L143.17 63.11L143.8 63.8L144.44 64.48L145.07 65.17L145.71 65.85L146.34 66.53L146.97 67.21L147.61 67.88L148.24 68.55L148.87 69.21L149.5 69.87L150.13 70.53L150.76 71.18L151.46 71.89L152.15 72.59L152.84 73.3L153.53 74.01L154.23 74.71L154.92 75.42L155.62 76.13L156.31 76.83L157 77.54L157.7 78.24L158.39 78.95L159.09 79.65L159.79 80.36L160.48 81.06L161.18 81.76L161.87 82.47L162.57 83.17L163.27 83.87L163.97 84.58L164.66 85.28L165.36 85.98L166.06 86.68L166.76 87.39L167.45 88.09L168.15 88.79L168.85 89.49L169.55 90.19L170.25 90.89L170.95 91.59L171.65 92.29L172.35 92.99L173.05 93.69L173.75 94.39L174.45 95.09L175.15 95.79L175.86 96.49L176.56 97.19L177.26 97.88L177.96 98.58L178.66 99.28L178.69 99.08L178.72 98.88L178.75 98.67L178.77 98.47L178.8 98.27L178.83 98.07L178.85 97.86L178.88 97.66L178.91 97.46L178.93 97.25L178.96 97.05L178.98 96.85L179 96.64L179.03 96.44L179.05 96.24L179.07 96.03L179.1 95.83L179.12 95.62L179.14 95.42L179.16 95.22L179.18 95.01L179.2 94.81L179.22 94.6L179.24 94.4L179.26 94.19L179.28 93.99L179.3 93.78L179.32 93.58L179.34 93.37L179.35 93.17L179.37 92.96L179.38 92.75L179.4 92.55L179.41 92.34L179.43 92.14L179.44 91.93L179.46 91.72L179.47 91.52L179.48 91.31L179.49 91.1L179.51 90.9L179.52 90.7L179.53 90.5L179.54 90.3L179.55 90.1L179.56 89.9L179.56 89.7L179.57 89.49L179.58 89.29L179.59 89.09L179.6 88.89L179.61 88.69L179.61 88.48L179.62 88.28L179.63 88.08L179.63 87.88L179.64 87.67L179.65 87.47L179.65 87.27L179.66 87.07L179.66 86.86L179.67 86.66L179.67 86.46L179.68 86.25L179.68 86.05L179.69 85.85L179.69 85.64L179.7 85.44L179.7 85.23L179.7 85.03L179.71 84.83L179.71 84.62L179.71 84.42L179.72 84.21L179.72 84.01L179.72 83.8L179.72 83.6L179.72 83.4L179.73 83.19L179.73 82.99L179.01 82.37L178.29 81.76L177.57 81.14L176.86 80.52L176.15 79.89L175.44 79.26L174.74 78.63L174.03 78L173.33 77.36L172.64 76.72L171.94 76.08L171.24 75.43L170.55 74.79L169.86 74.14L169.17 73.49L168.48 72.83L167.8 72.18L167.11 71.52L166.43 70.87L165.74 70.21L165.06 69.55L164.38 68.89L163.7 68.23L163.02 67.57L162.34 66.91L161.66 66.25L160.98 65.58L160.3 64.92L159.62 64.26L158.94 63.6L158.26 62.94L157.58 62.28L156.9 61.62L156.22 60.96L155.54 60.3L154.86 59.65L154.18 58.99L153.49 58.34L152.81 57.68L152.12 57.03L151.73 56.66L151.34 56.29L150.95 55.92L150.56 55.55L150.17 55.18L149.78 54.81L149.39 54.44L149 54.07L148.61 53.7L148.21 53.33L147.82 52.96L147.43 52.59L147.04 52.22L146.65 51.85L146.25 51.48L145.86 51.11L145.47 50.74L145.08 50.38L144.68 50.01L144.29 49.64L143.89 49.27L143.5 48.91L143.1 48.54L142.71 48.18L142.31 47.81L141.91 47.45L141.52 47.08L141.12 46.72L140.72 46.36L140.32 46L139.92 45.63L139.52 45.27L139.12 44.91L138.72 44.56L138.31 44.2L137.91 43.84L137.51 43.48L137.1 43.13L136.7 42.78L136.29 42.42L136.08 42.24L135.87 42.04L135.65 41.85L135.43 41.64L135.2 41.43L134.97 41.21L134.74 40.99L134.51 40.77L134.27 40.54L134.03 40.3L133.78 40.07L133.54 39.83L133.29 39.59L133.04 39.35L132.79 39.11L132.53 38.87L132.28 38.62L132.02 38.38L131.76 38.14L131.5 37.9L131.24 37.66L130.98 37.43L130.71 37.2L130.45 36.97L130.18 36.75L129.92 36.53L129.65 36.31L129.38 36.1L129.12 35.9L128.85 35.7L128.58 35.51L128.31 35.33L128.05 35.15L127.78 34.99L127.52 34.83L127.25 34.68L126.99 34.54L126.72 34.41L126.46 34.29L126.2 34.19L126.04 34.12L125.89 34.04L125.75 33.96L125.61 33.87L125.49 33.77L125.37 33.66L125.27 33.55L125.17 33.44L125.08 33.32L125 33.19L124.93 33.06L124.87 32.93L124.82 32.79L124.77 32.66L124.74 32.52L124.71 32.38L124.69 32.23L124.69 32.09L124.69 31.95L124.7 31.81L124.71 31.67L124.74 31.53L124.78 31.4L124.82 31.27L124.87 31.14L124.94 31.02L125.01 30.9L125.09 30.78L125.18 30.67L125.27 30.57L125.38 30.47L125.5 30.38L125.62 30.3L125.75 30.23L125.9 30.16L126.05 30.1L126.21 30.06L126.37 30.02L126.55 30L126.74 29.98L127.4 29.98L128.07 30.04L128.74 30.15L129.42 30.31L130.11 30.52L130.79 30.77L131.49 31.08L132.18 31.42L132.88 31.8L133.57 32.22L134.27 32.68L134.97 33.17L135.66 33.68L136.36 34.23L137.05 34.8L137.74 35.39L138.42 36.01L139.1 36.64L139.78 37.29L140.45 37.95L141.11 38.62L141.77 39.3L142.42 39.99L143.06 40.68L143.69 41.37L144.31 42.06L144.92 42.75L145.52 43.43L146.1 44.1L146.67 44.76L147.23 45.41L147.78 46.05L148.31 46.66L148.83 47.26L149.32 47.83L149.81 48.38L150.27 48.9L150.72 49.39L151.14 49.85L151.55 50.27L152.25 50.99L152.95 51.7L153.65 52.42L154.34 53.14L155.04 53.86L155.73 54.58L156.43 55.3L157.13 56.02L157.82 56.74L158.52 57.47L159.21 58.19L159.91 58.91L160.6 59.63L161.3 60.36L161.99 61.08L162.69 61.8L163.39 62.52L164.08 63.24L164.78 63.96L165.48 64.68L166.18 65.4L166.88 66.12L167.58 66.84L168.28 67.55L168.99 68.27L169.69 68.98L170.4 69.69L171.1 70.41L171.81 71.11L172.52 71.82L173.23 72.53L173.95 73.23L174.66 73.93L175.38 74.64L176.1 75.33L176.82 76.03L177.54 76.72L178.27 77.41L179 78.1L179.73 78.79L179.72 78.4L179.72 78.02L179.71 77.63L179.71 77.24L179.7 76.86L179.7 76.47L179.69 76.08L179.68 75.69L179.67 75.31L179.67 74.92L179.66 74.53L179.65 74.14L179.64 73.75L179.63 73.36L179.62 72.98L179.61 72.59L179.6 72.2L179.59 71.81L179.58 71.42L179.56 71.03L179.55 70.64L179.54 70.25L179.53 69.86L179.51 69.47L179.5 69.08L179.49 68.69L179.47 68.3L179.46 67.91L179.44 67.52L179.43 67.13L179.41 66.73L179.4 66.34L179.38 65.95L179.37 65.56L179.35 65.17L179.34 64.78L179.32 64.39L179.3 63.99L179.29 63.6L179.27 63.21L178.64 62.7L178.02 62.19L177.4 61.68L176.78 61.17L176.17 60.65L175.55 60.14L174.94 59.62L174.33 59.09L173.72 58.57L173.12 58.05L172.51 57.52L171.91 56.99L171.31 56.46L170.71 55.93L170.11 55.39L169.51 54.86L168.91 54.32L168.32 53.78L167.73 53.24L167.13 52.7L166.54 52.16L165.95 51.62L165.37 51.07L164.78 50.52L164.19 49.98L163.61 49.43L163.02 48.88L162.44 48.33L161.86 47.77L161.27 47.22L160.69 46.67L160.11 46.11L159.53 45.56L158.95 45L158.38 44.44L157.8 43.88L157.22 43.32L156.64 42.76L156.07 42.2L155.49 41.64L154.89 41.07L154.3 40.5L153.69 39.93L153.09 39.37L152.47 38.81L151.86 38.25L151.24 37.7L150.62 37.14L150 36.59L149.37 36.05L148.75 35.5L148.12 34.96L147.49 34.42L146.85 33.88L146.22 33.34L145.59 32.8L144.95 32.26L144.32 31.72L143.68 31.19L143.05 30.65L142.41 30.11L141.78 29.57L141.14 29.03L140.51 28.5L139.88 27.95L139.25 27.41L138.63 26.87L138 26.32L137.38 25.78L136.76 25.23L136.15 24.68L135.53 24.12L134.92 23.56L134.32 23L133.72 22.44L133.12 21.87L132.52 21.3L131.94 20.73L131.35 20.15L130.78 19.56L130.57 19.56L130.36 19.56L130.16 19.56L129.95 19.56L129.75 19.56L129.55 19.55L129.34 19.54L129.14 19.54L128.94 19.53L128.74 19.52L128.54 19.51L128.35 19.5L128.15 19.48L127.95 19.47L127.76 19.45L127.57 19.43L127.37 19.41L127.18 19.39L126.99 19.37L126.8 19.34L126.62 19.32L126.43 19.29L126.25 19.26L126.07 19.23L125.88 19.2L125.7 19.16L125.53 19.12L125.35 19.09L125.18 19.05L125 19L124.83 18.96L124.66 18.91L124.5 18.86L124.33 18.81L124.17 18.76L124.01 18.71L123.85 18.65L123.69 18.59L123.53 18.53L123.38 18.47L123.43 19.13L123.48 19.8ZM123.76 75.29L123.74 76.83L123.72 78.37L123.71 79.92L123.71 81.46L125.17 81.16L126.65 80.92L128.13 80.72L129.62 80.58L131.12 80.48L132.63 80.43L131.14 79.07L129.66 77.71L128.19 76.34L126.72 74.97L125.25 73.58L123.8 72.2L123.78 73.74L123.76 75.29ZM144.83 18.53L144.57 18.54L144.32 18.55L144.05 18.56L143.78 18.58L143.5 18.59L143.22 18.61L142.93 18.63L142.64 18.66L142.34 18.68L142.04 18.71L141.74 18.73L141.42 18.76L141.11 18.79L140.79 18.83L140.47 18.86L140.14 18.89L139.81 18.93L139.48 18.96L139.14 19L138.8 19.03L138.46 19.07L138.12 19.1L139.07 19.76L140.01 20.45L140.95 21.16L141.87 21.9L142.78 22.65L143.68 23.42L144.57 24.21L145.45 25.01L146.32 25.83L147.19 26.66L148.04 27.49L148.89 28.34L149.73 29.19L150.56 30.05L151.38 30.91L152.2 31.78L153.01 32.64L153.82 33.5L154.62 34.36L155.41 35.21L156.2 36.06L156.98 36.9L157.76 37.73L158.54 38.54L159.38 39.42L160.21 40.3L161.05 41.18L161.89 42.06L162.72 42.93L163.56 43.81L164.4 44.69L165.24 45.56L166.08 46.43L166.92 47.3L167.77 48.17L168.62 49.03L169.47 49.89L170.32 50.75L171.18 51.61L172.04 52.46L172.9 53.3L173.77 54.15L174.65 54.99L175.53 55.82L176.41 56.65L177.3 57.47L178.19 58.29L179.09 59.1L179.06 58.32L179.02 57.54L178.99 56.77L178.96 55.99L178.92 55.21L178.89 54.43L178.86 53.66L178.83 52.88L178.8 52.1L178.77 51.33L178.74 50.55L178.71 49.77L178.69 49L178.66 48.22L178.64 47.45L178.61 46.68L178.59 45.9L178.58 45.13L178.56 44.36L178.54 43.59L178.53 42.82L178.52 42.05L178.51 41.28L178.5 40.51L178.45 40.52L178.39 40.53L178.33 40.53L178.27 40.54L178.22 40.54L178.16 40.54L178.1 40.53L178.04 40.53L177.98 40.52L177.93 40.51L177.87 40.49L177.81 40.48L177.75 40.45L177.7 40.43L177.64 40.4L177.58 40.37L177.53 40.34L177.47 40.3L177.41 40.26L177.36 40.22L177.3 40.17L177.25 40.12L177.2 40.06L177.14 40L176.61 39.38L176.07 38.75L175.53 38.13L174.99 37.51L174.44 36.89L173.89 36.28L173.33 35.67L172.77 35.06L172.21 34.46L171.64 33.86L171.07 33.26L170.5 32.66L169.92 32.07L169.34 31.49L168.75 30.91L168.16 30.33L167.57 29.75L166.97 29.18L166.37 28.62L165.77 28.06L165.16 27.5L164.55 26.95L163.93 26.4L163.31 25.86L162.91 25.52L162.51 25.19L162.1 24.86L161.69 24.54L161.28 24.22L160.87 23.91L160.46 23.6L160.04 23.29L159.62 22.99L159.2 22.69L158.78 22.39L158.35 22.1L157.93 21.81L157.5 21.52L157.08 21.23L156.65 20.95L156.22 20.67L155.79 20.38L155.36 20.1L154.94 19.82L154.51 19.53L154.08 19.25L153.65 18.97L153.22 18.68L152.89 18.67L152.56 18.66L152.23 18.65L151.9 18.64L151.58 18.64L151.25 18.63L150.92 18.62L150.59 18.61L150.26 18.6L149.93 18.6L149.6 18.59L149.27 18.58L148.94 18.58L148.61 18.57L148.28 18.56L147.95 18.56L147.62 18.55L147.29 18.55L146.96 18.54L146.63 18.54L146.3 18.54L145.97 18.53L145.64 18.53L145.31 18.53L145.07 18.53L144.83 18.53ZM162.07 19.55L162.38 19.83L162.69 20.1L162.99 20.38L163.29 20.65L163.59 20.92L163.88 21.19L164.17 21.45L164.46 21.71L164.74 21.96L166.08 23.19L167.4 24.44L168.7 25.71L169.99 27L171.25 28.3L172.5 29.62L173.73 30.96L174.95 32.31L176.14 33.68L177.32 35.07L178.49 36.47L178.51 34.91L178.54 33.37L178.59 31.82L178.65 30.29L178.72 28.75L178.81 27.23L178.92 25.71L179.04 24.2L179.18 22.69L179.34 21.19L179.52 19.7L177.88 19.66L176.23 19.61L174.59 19.55L172.94 19.49L171.3 19.42L169.65 19.35L168.01 19.28L166.36 19.21L164.72 19.14L163.08 19.06L161.43 18.99L161.75 19.27L162.07 19.55Z" id="bbm4K6AJ6v"></path><path d="M53.96 9.64L54.03 9.65L54.11 9.66L54.19 9.67L54.26 9.69L54.34 9.71L54.42 9.73L54.5 9.76L54.58 9.79L54.66 9.83L54.69 9.84L54.73 9.86L54.76 9.87L54.79 9.89L54.83 9.91L54.86 9.92L54.89 9.94L54.93 9.96L54.96 9.98L54.99 9.99L55.02 10.01L55.06 10.03L55.09 10.05L55.12 10.07L55.15 10.09L55.18 10.1L55.22 10.12L55.25 10.14L55.28 10.16L55.31 10.18L55.35 10.2L55.38 10.22L55.41 10.24L55.44 10.26L55.47 10.28L55.54 10.32L55.57 10.34L55.6 10.36L55.63 10.38L55.67 10.4L55.7 10.42L55.73 10.44L55.76 10.46L55.8 10.48L55.83 10.5L55.86 10.52L55.89 10.54L55.92 10.56L55.96 10.57L56.39 10.57L56.82 10.57L57.26 10.58L57.69 10.58L58.13 10.58L58.56 10.58L58.99 10.59L59.43 10.59L59.86 10.6L60.3 10.6L60.73 10.61L61.16 10.62L61.6 10.63L62.03 10.64L62.46 10.65L62.9 10.66L63.33 10.67L63.77 10.68L64.2 10.7L64.63 10.71L65.07 10.72L65.5 10.74L65.93 10.76L66.37 10.77L66.8 10.79L67.23 10.81L67.67 10.83L68.1 10.85L68.53 10.87L68.97 10.89L69.4 10.91L69.83 10.94L70.27 10.96L70.7 10.99L71.13 11.01L71.57 11.04L72 11.07L72.43 11.1L72.87 11.12L73.3 11.15L73.31 11.16L73.32 11.16L73.33 11.16L73.35 11.16L73.36 11.16L73.37 11.16L73.38 11.17L73.39 11.17L73.4 11.17L73.41 11.17L73.42 11.17L73.43 11.18L73.44 11.18L73.45 11.18L73.46 11.19L73.47 11.19L73.48 11.19L73.5 11.2L73.51 11.2L73.52 11.21L73.55 11.22L73.57 11.22L73.58 11.23L73.6 11.23L73.62 11.24L73.63 11.24L73.64 11.24L73.65 11.25L73.66 11.25L73.68 11.25L73.69 11.25L73.7 11.26L73.71 11.26L73.72 11.26L73.95 11.08L74.19 10.91L74.44 10.76L74.7 10.62L74.96 10.49L75.23 10.38L75.5 10.28L75.78 10.19L76.06 10.12L76.34 10.06L76.63 10.01L76.91 9.98L77.2 9.97L77.48 9.96L77.76 9.97L78.04 9.99L78.32 10.03L78.59 10.08L78.86 10.15L79.12 10.22L79.37 10.32L79.62 10.42L79.86 10.54L80.09 10.68L80.31 10.82L80.52 10.98L80.72 11.16L80.91 11.35L81.08 11.55L81.24 11.77L81.38 12L81.51 12.25L81.63 12.51L81.72 12.78L81.8 13.07L81.86 13.37L81.9 13.69L81.92 14.02L81.92 14.36L81.89 14.72L81.68 17.02L81.48 19.33L81.3 21.64L81.13 23.94L80.97 26.25L80.83 28.56L80.69 30.87L80.57 33.17L80.46 35.48L80.35 37.79L80.26 40.1L80.17 42.41L80.09 44.72L80.02 47.03L79.96 49.34L79.9 51.65L79.84 53.96L79.79 56.27L79.75 58.58L79.7 60.89L79.66 63.2L79.63 65.51L79.59 67.82L79.55 70.13L79.52 72.44L79.48 74.76L79.45 77.07L79.41 79.38L79.37 81.69L79.32 84L79.27 86.31L79.22 88.62L79.17 90.93L79.11 93.24L79.04 95.56L78.96 97.87L78.88 100.18L78.79 102.49L78.69 104.8L78.59 107.11L78.58 107.24L78.57 107.36L78.55 107.48L78.53 107.6L78.5 107.71L78.48 107.83L78.44 107.93L78.41 108.04L78.37 108.14L78.33 108.24L78.28 108.34L78.23 108.43L78.18 108.52L78.12 108.6L78.07 108.69L78.01 108.77L77.94 108.84L77.88 108.92L77.81 108.99L77.74 109.06L77.66 109.12L77.59 109.18L77.51 109.24L77.43 109.3L77.35 109.35L77.27 109.4L77.19 109.44L77.1 109.49L77.01 109.53L76.92 109.56L76.84 109.6L76.74 109.63L76.65 109.65L76.56 109.68L76.47 109.7L76.37 109.72L76.28 109.73L76.18 109.74L76.09 109.75L75.99 109.76L75.94 110.87L75.87 111.97L75.78 113.07L75.66 114.17L75.52 115.26L75.37 116.35L75.18 117.44L74.98 118.53L74.76 119.61L74.52 120.69L74.26 121.76L73.98 122.83L73.68 123.89L73.37 124.96L73.03 126.01L72.68 127.06L72.31 128.11L71.92 129.16L71.52 130.19L71.1 131.23L70.67 132.26L70.22 133.28L69.75 134.3L69.27 135.31L68.78 136.32L68.27 137.32L67.75 138.32L67.22 139.31L66.67 140.29L66.11 141.27L65.54 142.24L64.96 143.21L64.37 144.17L63.76 145.12L63.15 146.07L62.53 147.01L61.89 147.94L61.25 148.86L60.6 149.78L59.94 150.69L59.28 151.58L58.58 152.48L57.85 153.4L57.08 154.33L56.28 155.27L55.45 156.21L54.59 157.16L53.7 158.11L52.78 159.07L51.83 160.01L50.85 160.95L49.85 161.89L48.83 162.81L47.78 163.72L46.72 164.61L45.63 165.48L44.52 166.32L43.4 167.15L42.26 167.95L41.11 168.71L39.94 169.45L38.75 170.14L37.56 170.8L36.36 171.42L35.15 172L33.92 172.53L32.7 173.01L31.47 173.45L30.23 173.82L28.99 174.14L27.75 174.41L26.5 174.61L25.26 174.74L24.02 174.81L22.79 174.81L21.55 174.74L20.33 174.59L19.11 174.36L17.89 174.05L16.69 173.66L16.52 173.6L16.35 173.53L16.19 173.45L16.03 173.37L15.88 173.29L15.73 173.2L15.59 173.1L15.45 173L15.32 172.9L15.19 172.8L15.07 172.69L14.96 172.58L14.85 172.46L14.75 172.34L14.65 172.22L14.55 172.1L14.47 171.97L14.38 171.84L14.31 171.71L14.23 171.57L14.17 171.44L14.11 171.3L14.05 171.16L14 171.02L13.96 170.88L13.92 170.73L13.88 170.59L13.85 170.44L13.83 170.29L13.81 170.15L13.8 170L13.8 169.85L13.79 169.7L13.8 169.56L13.81 169.41L13.82 169.26L13.84 169.12L13.87 168.97L13.9 168.83L13.94 168.68L13.94 168.68L13.93 168.67L13.93 168.66L13.92 168.66L13.92 168.65L13.91 168.64L13.91 168.64L13.9 168.63L13.89 168.62L13.89 168.62L13.87 168.6L13.87 168.6L13.86 168.59L13.86 168.59L13.85 168.58L13.84 168.57L13.84 168.56L13.84 168.56L13.83 168.56L13.83 168.55L13.82 168.54L13.82 168.53L13.82 168.53L13.61 168.16L13.41 167.79L13.22 167.41L13.03 167.03L12.85 166.65L12.67 166.27L12.49 165.88L12.32 165.5L12.16 165.11L11.99 164.72L11.83 164.32L11.68 163.93L11.52 163.53L11.37 163.13L11.22 162.74L11.08 162.34L10.93 161.94L10.79 161.53L10.65 161.13L10.51 160.73L10.38 160.32L10.24 159.92L10.11 159.51L9.97 159.11L9.84 158.7L9.71 158.3L9.58 157.89L9.45 157.49L9.31 157.08L9.18 156.67L9.05 156.27L8.92 155.87L8.78 155.46L8.65 155.06L8.51 154.66L8.37 154.26L8.23 153.86L8.09 153.46L7.95 153.06L7.8 152.66L7.67 152.31L7.54 151.96L7.41 151.61L7.28 151.25L7.15 150.9L7.02 150.55L6.89 150.2L6.76 149.84L6.63 149.49L6.51 149.14L6.38 148.78L6.25 148.43L6.13 148.08L6 147.72L5.88 147.37L5.75 147.02L5.63 146.66L5.5 146.31L5.38 145.95L5.26 145.6L5.14 145.25L5.02 144.89L4.9 144.53L4.78 144.18L4.66 143.82L4.54 143.47L4.43 143.11L4.31 142.75L4.2 142.4L4.08 142.04L3.97 141.68L3.86 141.33L3.75 140.97L3.64 140.61L3.53 140.25L3.42 139.89L3.31 139.53L3.21 139.17L3.1 138.81L3 138.45L2.75 138.31L2.51 138.15L2.28 137.99L2.07 137.81L1.86 137.62L1.67 137.42L1.49 137.2L1.32 136.99L1.16 136.76L1.01 136.52L0.88 136.28L0.76 136.04L0.66 135.79L0.56 135.53L0.48 135.27L0.42 135.01L0.37 134.74L0.33 134.47L0.31 134.21L0.31 133.94L0.31 133.67L0.34 133.41L0.38 133.14L0.43 132.88L0.51 132.63L0.59 132.38L0.7 132.13L0.82 131.89L0.96 131.65L1.12 131.43L1.29 131.21L1.48 131L1.69 130.79L1.92 130.6L2.17 130.42L2.44 130.26L2.72 130.1L3.03 129.96L3.35 129.83L3.7 129.71L4.54 129.45L5.4 129.16L6.29 128.84L7.2 128.49L8.12 128.12L9.06 127.72L10.01 127.3L10.98 126.85L11.95 126.38L12.94 125.89L13.94 125.37L14.94 124.83L15.94 124.26L16.95 123.68L17.96 123.07L18.96 122.44L19.97 121.8L20.97 121.13L21.97 120.44L22.96 119.74L23.94 119.01L24.9 118.27L25.86 117.52L26.8 116.74L27.73 115.95L28.64 115.14L29.53 114.32L30.4 113.48L31.25 112.63L32.07 111.77L32.87 110.89L33.64 110L34.39 109.1L35.1 108.19L35.78 107.26L36.42 106.32L37.03 105.38L37.61 104.42L38.14 103.46L38.63 102.48L38.62 102.42L38.61 102.36L38.6 102.29L38.59 102.23L38.58 102.17L38.57 102.1L38.57 102.04L38.57 101.98L38.57 101.92L38.57 101.85L38.58 101.79L38.58 101.73L38.59 101.67L38.6 101.61L38.61 101.55L38.63 101.49L38.64 101.43L38.66 101.37L38.68 101.31L38.7 101.26L38.72 101.2L38.74 101.15L38.77 101.09L38.8 101.04L38.83 100.99L38.86 100.94L38.89 100.89L38.93 100.85L38.97 100.8L39.01 100.76L39.05 100.71L39.09 100.67L39.14 100.63L39.18 100.6L39.23 100.56L39.28 100.53L39.33 100.5L39.39 100.47L39.44 100.44L39.5 100.41L39.57 100.24L39.63 100.07L39.69 99.9L39.75 99.73L39.81 99.56L39.87 99.39L39.93 99.22L39.98 99.04L40.04 98.87L40.09 98.7L40.14 98.53L40.19 98.36L40.24 98.18L40.29 98.01L40.33 97.84L40.38 97.66L40.42 97.49L40.46 97.32L40.5 97.14L40.54 96.97L40.58 96.8L40.62 96.62L40.65 96.45L40.68 96.27L40.71 96.1L40.74 95.92L40.77 95.75L40.8 95.57L40.82 95.4L40.84 95.22L40.87 95.05L40.88 94.87L40.9 94.7L40.92 94.52L40.93 94.35L40.95 94.17L40.96 93.99L40.97 93.82L40.97 93.64L40.98 93.46L40.18 93.52L39.38 93.57L38.58 93.62L37.77 93.68L36.97 93.73L36.16 93.78L35.36 93.83L34.55 93.87L33.74 93.92L32.94 93.96L32.13 94L31.32 94.03L30.51 94.06L29.7 94.08L28.89 94.1L28.09 94.11L27.28 94.11L26.47 94.11L25.67 94.1L24.86 94.08L24.06 94.05L23.26 94.02L22.45 93.97L21.65 93.92L20.85 93.85L20.06 93.77L19.26 93.69L18.47 93.59L17.68 93.47L16.89 93.35L16.1 93.21L15.31 93.06L14.53 92.89L13.75 92.71L12.97 92.51L12.2 92.3L11.42 92.07L10.65 91.83L9.89 91.57L9.13 91.29L9.12 91.28L9.11 91.28L9.09 91.28L9.08 91.27L9.07 91.27L9.06 91.26L9.05 91.26L9.05 91.25L9.04 91.25L9.03 91.24L9.02 91.23L9.01 91.23L9 91.22L8.99 91.22L8.98 91.21L8.97 91.21L8.96 91.2L8.96 91.19L8.95 91.19L8.94 91.18L8.93 91.18L8.9 91.15L8.88 91.14L8.87 91.14L8.86 91.13L8.85 91.12L8.85 91.12L8.84 91.11L8.83 91.11L8.82 91.1L8.81 91.1L8.8 91.09L8.79 91.09L8.78 91.08L8.77 91.08L8.76 91.07L8.61 91.04L8.46 91L8.31 90.96L8.16 90.91L8.02 90.86L7.87 90.8L7.73 90.74L7.59 90.68L7.45 90.61L7.31 90.54L7.18 90.47L7.04 90.39L6.91 90.3L6.79 90.22L6.66 90.12L6.54 90.03L6.42 89.93L6.31 89.82L6.2 89.71L6.09 89.6L5.99 89.48L5.89 89.36L5.79 89.23L5.7 89.1L5.61 88.96L5.52 88.82L5.44 88.68L5.37 88.53L5.3 88.37L5.23 88.22L5.17 88.05L5.12 87.89L5.07 87.71L5.02 87.54L4.99 87.36L4.95 87.17L4.92 86.98L4.9 86.79L4.89 86.59L4.88 86.39L4.85 85.41L4.83 84.44L4.81 83.46L4.8 82.49L4.79 81.52L4.78 80.54L4.78 79.57L4.78 78.59L4.79 77.62L4.8 76.64L4.81 75.67L4.83 74.69L4.85 73.72L4.87 72.74L4.9 71.77L4.93 70.79L4.96 69.82L4.99 68.84L5.03 67.87L5.07 66.89L5.11 65.92L5.15 64.94L5.2 63.97L5.24 62.99L5.29 62.02L5.34 61.04L5.39 60.07L5.44 59.09L5.5 58.12L5.55 57.15L5.6 56.17L5.66 55.2L5.71 54.23L5.77 53.25L5.83 52.28L5.88 51.31L5.94 50.33L5.99 49.36L6.05 48.39L6.1 47.42L6.13 46.88L6.14 46.31L6.15 45.71L6.15 45.08L6.15 44.42L6.14 43.73L6.12 43.02L6.11 42.29L6.09 41.53L6.07 40.76L6.06 39.97L6.04 39.17L6.03 38.36L6.02 37.54L6.02 36.71L6.02 35.88L6.03 35.04L6.05 34.2L6.08 33.36L6.12 32.52L6.17 31.69L6.23 30.86L6.3 30.04L6.39 29.24L6.5 28.45L6.62 27.67L6.76 26.9L6.92 26.16L7.1 25.44L7.3 24.74L7.52 24.07L7.77 23.42L8.04 22.8L8.34 22.22L8.66 21.66L9.01 21.15L9.39 20.67L9.79 20.22L10.23 19.83L10.7 19.47L10.78 19.42L10.86 19.37L10.94 19.32L11.03 19.27L11.11 19.23L11.19 19.19L11.28 19.15L11.36 19.12L11.45 19.09L11.53 19.06L11.62 19.03L11.71 19.01L11.79 18.99L11.88 18.97L11.97 18.95L12.06 18.93L12.14 18.92L12.23 18.91L12.32 18.9L12.41 18.9L12.5 18.89L12.59 18.89L12.68 18.89L12.77 18.9L12.86 18.9L12.95 18.91L13.03 18.92L13.12 18.93L13.21 18.94L13.3 18.95L13.39 18.97L13.48 18.99L13.57 19.01L13.66 19.03L13.74 19.05L13.83 19.07L13.92 19.1L14 19.13L14.09 19.16L14.18 19.19L14.16 19.04L14.15 18.9L14.16 18.76L14.17 18.62L14.18 18.48L14.21 18.34L14.24 18.21L14.28 18.08L14.33 17.95L14.38 17.83L14.44 17.71L14.51 17.59L14.58 17.48L14.66 17.38L14.74 17.27L14.83 17.17L14.92 17.08L15.02 16.99L15.12 16.91L15.23 16.83L15.34 16.76L15.45 16.69L15.57 16.63L15.68 16.58L15.81 16.54L15.93 16.5L16.06 16.46L16.19 16.44L16.32 16.42L16.45 16.41L16.58 16.41L16.72 16.42L16.86 16.43L16.99 16.46L17.13 16.49L17.26 16.53L17.4 16.58L17.54 16.64L17.67 16.71L17.81 16.79L18.19 16.41L18.6 16.05L19.02 15.7L19.46 15.38L19.92 15.07L20.39 14.77L20.88 14.5L21.38 14.24L21.9 13.99L22.42 13.76L22.96 13.54L23.51 13.34L24.06 13.15L24.63 12.97L25.2 12.81L25.78 12.65L26.37 12.51L26.96 12.38L27.56 12.25L28.16 12.14L28.77 12.04L29.37 11.94L29.98 11.85L30.59 11.77L31.19 11.7L31.8 11.63L32.4 11.57L33 11.52L33.6 11.47L34.19 11.42L34.78 11.38L35.36 11.34L35.93 11.3L36.5 11.27L37.06 11.24L37.6 11.21L38.14 11.18L38.66 11.15L39.18 11.12L39.68 11.09L39.99 11.07L40.3 11.05L40.62 11.03L40.93 11.02L41.24 11L41.56 10.98L41.87 10.97L42.18 10.95L42.49 10.93L42.81 10.92L43.12 10.9L43.43 10.89L43.75 10.88L44.06 10.86L44.37 10.85L44.69 10.84L45 10.82L45.31 10.81L45.62 10.8L45.94 10.79L46.25 10.78L46.56 10.77L46.88 10.76L47.19 10.75L47.5 10.74L47.82 10.73L48.13 10.72L48.44 10.71L48.75 10.7L49.07 10.69L49.38 10.69L49.69 10.68L50.01 10.67L50.32 10.67L50.63 10.66L50.95 10.65L51.26 10.65L51.57 10.64L51.89 10.64L52.2 10.63L52.23 10.57L52.26 10.51L52.3 10.46L52.34 10.4L52.38 10.35L52.42 10.29L52.46 10.24L52.51 10.19L52.55 10.15L52.6 10.1L52.65 10.06L52.71 10.01L52.76 9.97L52.82 9.93L52.87 9.9L52.93 9.86L52.99 9.83L53.05 9.8L53.12 9.77L53.18 9.75L53.24 9.72L53.31 9.7L53.38 9.68L53.45 9.67L53.52 9.66L53.59 9.65L53.66 9.64L53.73 9.63L53.81 9.63L53.88 9.63L53.96 9.64ZM20.93 160.56L21.47 162.43L21.89 164.3L23.21 163.96L24.53 163.62L25.84 163.28L27.14 162.93L25.27 161.39L23.38 159.87L21.47 158.35L19.56 156.83L20.29 158.69L20.93 160.56ZM11.23 137.35L11.06 137.42L10.9 137.49L10.73 137.56L10.57 137.63L10.4 137.7L10.24 137.77L10.08 137.84L9.92 137.9L9.76 137.96L9.6 138.02L9.45 138.08L9.3 138.14L9.53 138.52L9.77 138.91L10.01 139.3L10.24 139.69L10.48 140.08L10.73 140.48L10.97 140.87L11.21 141.27L11.45 141.67L11.69 142.06L11.94 142.46L12.18 142.87L12.42 143.27L12.67 143.67L14.1 144.82L15.53 146L16.95 147.2L18.35 148.42L19.75 149.66L21.13 150.92L22.51 152.19L23.88 153.48L25.23 154.77L26.58 156.07L27.91 157.38L29.23 158.7L30.54 160.01L31.85 161.33L32.19 161.19L32.52 161.04L32.86 160.9L33.2 160.74L33.54 160.59L33.88 160.42L34.21 160.26L34.55 160.08L34.88 159.9L35.22 159.72L35.55 159.52L35.88 159.32L36.21 159.11L36.54 158.89L35.55 158.19L34.57 157.47L33.59 156.75L32.61 156.03L31.64 155.3L30.67 154.56L29.71 153.81L28.75 153.06L27.8 152.3L26.86 151.53L25.93 150.74L25.01 149.95L24.09 149.15L23.18 148.34L22.36 147.59L21.52 146.85L20.68 146.09L19.82 145.33L18.97 144.56L18.11 143.79L17.25 143L16.4 142.21L15.56 141.4L14.72 140.59L13.91 139.76L13.1 138.92L12.32 138.07L11.56 137.2L11.4 137.28L11.23 137.35ZM22.34 131.16L21.97 131.4L21.6 131.64L21.24 131.87L20.88 132.1L20.52 132.33L20.15 132.55L19.8 132.78L19.44 133L19.08 133.21L18.73 133.43L18.37 133.64L18.02 133.85L17.67 134.05L18.29 134.75L18.91 135.45L19.52 136.15L20.14 136.86L20.75 137.57L21.36 138.28L21.97 138.99L22.59 139.7L23.2 140.4L23.82 141.1L24.45 141.79L25.07 142.47L25.71 143.14L26.35 143.81L27 144.45L27.84 145.27L28.69 146.08L29.54 146.89L30.4 147.69L31.26 148.48L32.12 149.27L33 150.05L33.87 150.83L34.75 151.6L35.64 152.36L36.53 153.12L37.42 153.88L38.32 154.63L39.22 155.38L40.12 156.12L40.7 155.66L41.27 155.18L41.84 154.71L42.4 154.23L42.96 153.74L43.52 153.25L44.07 152.75L44.61 152.25L45.15 151.74L45.68 151.23L46.21 150.71L46.73 150.18L47.24 149.64L47.75 149.1L48.25 148.55L47.31 147.95L46.37 147.34L45.43 146.72L44.49 146.11L43.55 145.49L42.62 144.87L41.69 144.24L40.76 143.61L39.83 142.98L38.91 142.34L37.99 141.7L37.07 141.06L36.15 140.41L35.24 139.76L34.33 139.1L33.58 138.57L32.83 138.03L32.07 137.5L31.3 136.96L30.53 136.42L29.75 135.88L28.98 135.33L28.21 134.78L27.45 134.22L26.69 133.65L25.94 133.08L25.2 132.49L24.47 131.89L23.76 131.28L23.07 130.66L22.7 130.91L22.34 131.16ZM32.54 123.4L32.14 123.75L31.72 124.09L31.31 124.44L30.9 124.78L30.48 125.12L30.07 125.46L29.65 125.8L29.23 126.13L28.81 126.46L28.39 126.79L27.97 127.11L27.55 127.43L28.27 127.96L28.97 128.5L29.68 129.06L30.37 129.62L31.06 130.19L31.75 130.77L32.43 131.35L33.11 131.93L33.79 132.51L34.47 133.08L35.15 133.66L35.83 134.22L36.52 134.78L37.2 135.32L38.16 136.07L39.13 136.81L40.1 137.55L41.07 138.29L42.04 139.02L43.02 139.75L44 140.48L44.98 141.2L45.96 141.91L46.95 142.63L47.94 143.34L48.93 144.04L49.93 144.75L50.92 145.45L51.17 145.14L51.41 144.83L51.65 144.53L51.88 144.21L52.12 143.9L52.36 143.59L52.59 143.27L52.82 142.96L53.05 142.64L53.28 142.32L53.5 142L53.72 141.68L53.94 141.35L54.16 141.03L53.51 140.35L52.85 139.67L52.19 139L51.53 138.34L50.86 137.68L50.18 137.02L49.5 136.37L48.81 135.73L48.12 135.09L47.42 134.47L46.72 133.84L46 133.23L45.28 132.62L44.55 132.03L43.75 131.39L42.93 130.77L42.08 130.16L41.23 129.54L40.37 128.93L39.5 128.31L38.65 127.68L37.81 127.04L36.99 126.38L36.19 125.7L35.42 125L34.69 124.27L34 123.51L33.37 122.71L33.36 122.7L33.36 122.7L33.36 122.69L33.36 122.69L33.36 122.69L32.95 123.04L32.54 123.4ZM45.49 109.2L44.97 109.98L44.42 110.77L43.84 111.55L43.25 112.34L42.63 113.12L41.99 113.9L41.33 114.68L40.66 115.46L39.96 116.23L39.25 117L38.52 117.76L37.78 118.52L37.03 119.27L36.26 120.02L37.07 120.38L37.86 120.79L38.64 121.23L39.41 121.71L40.17 122.22L40.91 122.76L41.64 123.32L42.37 123.9L43.08 124.5L43.77 125.11L44.46 125.73L45.14 126.35L45.81 126.97L46.47 127.58L47.11 128.18L47.75 128.78L48.32 129.3L48.88 129.83L49.43 130.36L49.98 130.9L50.53 131.44L51.07 131.98L51.6 132.53L52.14 133.08L52.67 133.63L53.19 134.19L53.72 134.75L54.24 135.31L54.75 135.88L55.27 136.45L55.78 137.02L56.28 137.6L56.83 136.65L57.37 135.69L57.91 134.73L58.43 133.76L58.94 132.79L59.45 131.81L59.94 130.83L60.42 129.84L60.9 128.84L61.36 127.85L61.82 126.84L62.26 125.83L62.69 124.82L63.12 123.8L63.53 122.78L63.92 121.75L63.33 121.09L62.73 120.44L62.13 119.79L61.52 119.14L60.91 118.5L60.29 117.86L59.67 117.23L59.04 116.61L58.4 115.99L57.75 115.39L57.1 114.79L56.44 114.2L55.77 113.62L55.09 113.05L54.41 112.49L53.71 111.94L53.28 111.61L52.85 111.3L52.41 110.99L51.97 110.7L51.52 110.41L51.07 110.13L50.62 109.86L50.17 109.59L49.71 109.33L49.25 109.08L48.79 108.83L48.33 108.58L47.86 108.34L47.4 108.1L46.93 107.86L46.47 107.63L45.99 108.41L45.49 109.2ZM49.26 88.49L49.23 88.64L49.21 88.78L49.18 88.93L49.14 89.08L49.1 89.24L49.06 89.39L49.01 89.55L48.96 89.71L48.9 89.88L48.84 90.04L48.77 90.21L48.7 90.39L48.63 90.56L48.6 90.62L48.57 90.68L48.54 90.73L48.51 90.78L48.48 90.84L48.44 90.89L48.4 90.94L48.37 90.99L48.33 91.03L48.29 91.08L48.25 91.13L48.21 91.18L48.17 91.23L48.13 91.27L48.1 91.32L48.52 92.03L48.88 92.76L49.17 93.5L49.41 94.26L49.59 95.03L49.72 95.81L49.79 96.61L49.8 97.42L49.77 98.24L49.68 99.07L49.55 99.91L49.36 100.75L49.14 101.61L48.86 102.48L48.55 103.35L49.01 103.64L49.47 103.94L49.92 104.25L50.38 104.57L50.82 104.89L51.26 105.21L51.7 105.54L52.13 105.87L52.55 106.2L52.97 106.53L53.38 106.87L53.79 107.2L54.18 107.53L54.58 107.86L54.96 108.19L55.69 108.82L56.42 109.46L57.13 110.11L57.83 110.77L58.53 111.43L59.22 112.1L59.9 112.78L60.57 113.47L61.23 114.16L61.89 114.86L62.54 115.57L63.18 116.28L63.81 117L64.44 117.73L65.07 118.46L65.35 117.64L65.62 116.82L65.88 116L66.14 115.17L66.4 114.35L66.65 113.52L66.89 112.69L67.12 111.86L67.34 111.03L67.56 110.19L67.76 109.35L67.96 108.51L68.15 107.67L68.33 106.83L68.49 105.98L67.22 104.79L65.94 103.6L64.67 102.41L63.39 101.22L62.11 100.03L60.83 98.84L59.55 97.66L58.27 96.47L56.99 95.29L55.71 94.11L54.42 92.92L53.14 91.74L51.86 90.56L50.57 89.38L49.29 88.2L49.27 88.34L49.26 88.49ZM17.84 41.09L17.8 41.43L17.75 41.78L17.71 42.12L17.66 42.45L17.62 42.79L17.58 43.12L17.53 43.45L17.49 43.77L17.45 44.09L17.41 44.41L17.36 44.73L17.32 45.04L17.28 45.34L17.24 45.65L17.21 45.95L17.17 46.24L17.13 46.53L17.1 46.81L17.06 47.09L17.03 47.37L17 47.64L16.97 47.9L16.94 48.16L16.91 48.41L16.89 48.66L16.87 48.9L16.84 49.14L16.83 49.36L16.81 49.59L16.79 49.8L16.78 50.01L16.77 50.21L16.77 50.29L16.76 50.37L16.76 50.44L16.76 50.52L16.75 50.6L16.75 50.67L16.74 50.75L16.74 50.83L16.74 50.91L16.73 50.98L16.73 51.06L16.72 51.14L16.72 51.21L16.71 51.29L16.71 51.37L16.7 51.52L16.69 51.68L16.69 51.83L16.68 51.91L16.68 51.98L16.67 52.06L16.67 52.14L16.66 52.22L16.66 52.29L16.66 52.37L16.65 52.45L16.65 52.52L16.64 52.6L16.64 52.68L16.64 52.75L16.63 52.83L16.7 52.74L16.76 52.66L16.83 52.57L16.9 52.49L16.98 52.41L17.06 52.34L17.13 52.26L17.22 52.2L17.3 52.13L17.39 52.07L17.47 52.01L17.57 51.96L17.66 51.91L17.75 51.86L17.85 51.82L17.94 51.79L18.04 51.76L18.14 51.73L18.24 51.71L18.34 51.69L18.45 51.68L18.55 51.68L18.66 51.68L18.76 51.68L18.87 51.69L18.98 51.71L19.08 51.74L19.19 51.77L19.3 51.81L19.41 51.85L19.52 51.9L19.63 51.96L19.74 52.03L19.84 52.1L20.69 52.72L21.53 53.35L22.36 54.01L23.18 54.68L24 55.37L24.81 56.08L25.61 56.8L26.4 57.54L27.19 58.29L27.97 59.05L28.75 59.82L29.52 60.61L30.28 61.4L31.04 62.2L31.8 63.01L32.55 63.82L33.3 64.64L34.05 65.46L34.79 66.29L35.53 67.11L36.27 67.94L37.01 68.77L37.74 69.6L38.48 70.42L39.21 71.24L39.94 72.06L40.67 72.87L41.41 73.68L42.14 74.48L42.87 75.27L43.61 76.05L44.35 76.82L45.08 77.58L45.82 78.32L46.51 79.01L47.2 79.7L47.89 80.38L48.58 81.07L49.27 81.75L49.96 82.44L50.65 83.12L51.34 83.81L52.03 84.49L52.72 85.18L53.4 85.86L54.09 86.55L54.78 87.23L55.47 87.92L56.16 88.6L56.85 89.29L57.54 89.97L58.23 90.66L58.92 91.35L59.61 92.03L60.3 92.72L60.99 93.4L61.67 94.09L62.36 94.78L63.05 95.46L63.74 96.15L64.42 96.84L65.11 97.52L65.8 98.21L66.48 98.9L67.17 99.59L67.86 100.28L68.54 100.97L69.23 101.66L69.25 101.51L69.27 101.35L69.29 101.2L69.31 101.05L69.33 100.9L69.35 100.75L69.37 100.6L69.38 100.45L69.4 100.3L69.42 100.15L69.44 100L69.46 99.85L69.48 99.7L69.49 99.55L69.51 99.4L69.53 99.25L69.54 99.09L69.56 98.94L69.58 98.79L69.59 98.64L69.61 98.49L69.62 98.34L69.64 98.19L69.65 98.04L69.67 97.89L69.68 97.73L69.69 97.58L69.71 97.43L69.72 97.28L69.73 97.13L69.74 96.98L69.76 96.83L69.77 96.67L69.78 96.52L69.79 96.4L69.81 96.28L69.83 96.16L69.86 96.05L69.89 95.94L69.92 95.83L69.96 95.73L70.01 95.63L70.06 95.53L70.11 95.43L70.17 95.34L70.23 95.25L70.3 95.16L70.37 95.08L70.44 95L70.51 94.92L70.59 94.85L70.67 94.78L70.75 94.71L70.84 94.65L70.93 94.59L71.02 94.53L71.11 94.48L71.2 94.43L71.3 94.39L71.39 94.35L71.49 94.31L71.59 94.27L71.69 94.24L71.79 94.22L71.89 94.19L71.99 94.17L72.1 94.16L72.2 94.15L72.19 94.01L72.18 93.87L72.17 93.73L72.16 93.59L72.15 93.45L72.14 93.31L72.14 93.17L72.13 93.03L72.12 92.9L72.11 92.76L72.1 92.62L72.1 92.48L72.09 92.34L72.08 92.2L72.07 92.06L72.06 91.92L72.06 91.78L72.05 91.64L72.03 91.36L72.03 91.23L72.02 91.09L72.01 90.95L72 90.81L71.99 90.67L71.99 90.53L71.98 90.39L71.97 90.25L71.96 90.11L71.95 89.97L71.95 89.83L71.94 89.69L71.93 89.56L71.92 89.42L70.93 88.56L69.94 87.71L68.95 86.86L67.96 86.01L66.97 85.15L65.98 84.3L64.99 83.45L64 82.59L63.01 81.73L62.02 80.88L61.03 80.02L60.04 79.17L59.05 78.31L58.06 77.45L57.08 76.59L56.09 75.73L55.1 74.87L54.12 74.01L53.13 73.15L52.15 72.29L51.17 71.43L50.18 70.56L49.2 69.7L48.22 68.83L47.24 67.97L46.26 67.1L45.28 66.24L44.3 65.37L43.32 64.5L42.35 63.63L41.37 62.76L40.4 61.89L39.42 61.02L38.45 60.14L37.88 59.63L37.3 59.12L36.7 58.6L36.1 58.08L35.49 57.55L34.87 57.02L34.25 56.49L33.62 55.96L32.99 55.42L32.35 54.87L31.71 54.32L31.07 53.77L30.42 53.21L29.78 52.65L29.13 52.09L28.48 51.52L27.84 50.94L27.2 50.36L26.56 49.78L25.93 49.19L25.3 48.6L24.68 48L24.06 47.39L23.45 46.78L22.85 46.17L22.26 45.55L21.67 44.93L21.1 44.3L20.54 43.66L19.99 43.02L19.45 42.37L18.93 41.72L18.42 41.06L17.93 40.4L17.88 40.74L17.84 41.09ZM15.66 71.67L15.58 73.2L15.51 74.73L15.44 76.27L15.37 77.8L15.3 79.34L15.24 80.87L15.18 82.4L15.13 83.94L15.07 85.47L16.69 85.54L18.3 85.55L19.92 85.5L21.53 85.41L23.15 85.27L24.76 85.09L26.38 84.89L28 84.67L29.61 84.42L31.23 84.17L32.84 83.91L32.02 83.07L31.19 82.23L30.35 81.39L29.52 80.56L28.68 79.73L27.83 78.91L26.97 78.1L26.11 77.29L25.24 76.5L24.35 75.71L23.45 74.93L22.77 74.36L22.08 73.8L21.38 73.24L20.66 72.68L19.95 72.12L19.24 71.56L18.53 70.99L17.83 70.41L17.14 69.82L16.47 69.22L15.81 68.6L15.74 70.13L15.66 71.67ZM18.36 26.32L18.38 26.47L18.4 26.63L18.42 26.79L18.44 26.95L18.45 27.1L18.47 27.26L18.49 27.42L18.51 27.58L18.52 27.74L18.54 27.91L18.55 28.07L18.56 28.23L18.57 28.4L18.59 28.56L18.6 28.73L18.61 28.9L18.62 29.06L18.62 29.23L18.63 29.4L18.64 29.57L18.64 29.74L18.65 29.91L18.65 30.08L18.66 30.26L18.66 30.43L18.66 30.61L18.66 30.78L18.66 30.96L18.66 31.14L18.65 31.31L19.49 32.13L20.32 32.95L21.15 33.78L21.96 34.62L22.78 35.46L23.58 36.31L24.38 37.17L25.18 38.03L25.98 38.89L26.77 39.76L27.56 40.63L28.34 41.51L29.13 42.38L29.91 43.26L30.69 44.14L31.47 45.03L32.25 45.91L33.04 46.79L33.82 47.67L34.61 48.55L35.39 49.42L36.18 50.3L36.98 51.17L37.77 52.04L38.58 52.9L39.38 53.76L40.19 54.62L41.01 55.47L41.83 56.31L42.66 57.14L43.49 57.97L44.34 58.8L45.19 59.61L46.04 60.43L46.9 61.25L47.76 62.06L48.62 62.88L49.48 63.69L50.34 64.5L51.21 65.31L52.07 66.12L52.94 66.93L53.8 67.74L54.67 68.55L55.54 69.36L56.4 70.18L57.27 70.99L58.13 71.8L59 72.62L59.86 73.43L60.72 74.25L61.58 75.07L62.44 75.89L63.29 76.71L64.15 77.54L65 78.36L65.84 79.19L66.69 80.03L67.53 80.86L68.36 81.7L69.2 82.55L70.02 83.39L70.85 84.24L71.67 85.1L71.65 84.83L71.64 84.57L71.62 84.31L71.61 84.05L71.59 83.78L71.58 83.52L71.56 83.26L71.55 83L71.53 82.74L71.52 82.47L71.51 82.21L71.49 81.95L71.48 81.69L71.46 81.43L71.45 81.16L71.44 80.9L71.42 80.64L71.41 80.38L71.4 80.11L71.38 79.85L71.37 79.59L71.36 79.33L71.34 79.06L71.33 78.8L71.32 78.54L71.3 78.28L71.28 77.75L71.27 77.49L71.25 77.23L71.24 76.97L71.23 76.7L71.2 76.69L71.17 76.68L71.15 76.67L71.12 76.66L71.1 76.64L71.07 76.63L71.05 76.62L71.02 76.6L71 76.59L70.97 76.57L70.95 76.56L70.92 76.54L70.9 76.52L70.87 76.51L70.85 76.49L70.82 76.47L70.8 76.46L70.78 76.44L70.75 76.42L70.73 76.4L70.71 76.38L70.68 76.36L70.66 76.34L70.64 76.32L70.62 76.3L70.59 76.27L70.57 76.25L70.55 76.23L70.53 76.2L70.51 76.18L70.49 76.15L70.47 76.13L69.61 75.03L68.74 73.96L67.86 72.89L66.97 71.83L66.07 70.78L65.16 69.75L64.24 68.72L63.31 67.71L62.38 66.7L61.43 65.7L60.48 64.71L59.52 63.73L58.55 62.76L57.58 61.79L56.6 60.83L55.61 59.88L54.61 58.93L53.61 57.99L52.61 57.06L51.6 56.13L50.58 55.2L49.56 54.28L48.54 53.36L47.51 52.45L46.47 51.54L45.44 50.63L44.4 49.72L43.35 48.82L42.31 47.92L41.26 47.02L40.21 46.12L39.16 45.22L38.52 44.68L37.87 44.13L37.22 43.59L36.56 43.04L35.89 42.49L35.22 41.94L34.54 41.38L33.86 40.82L33.18 40.26L32.49 39.69L31.8 39.12L31.11 38.55L30.42 37.97L29.73 37.39L29.04 36.8L28.35 36.21L27.67 35.62L26.99 35.02L26.32 34.41L25.65 33.8L24.98 33.19L24.33 32.57L23.68 31.94L23.04 31.31L22.41 30.67L21.78 30.02L21.17 29.37L20.58 28.71L19.99 28.05L19.42 27.38L18.86 26.7L18.31 26.01L18.33 26.16L18.36 26.32ZM16.43 56.7L16.41 57.18L16.39 57.65L16.36 58.13L16.34 58.61L16.31 59.09L16.29 59.57L16.26 60.05L16.24 60.53L16.21 61L16.18 61.48L16.16 61.96L16.13 62.44L16.11 62.92L16.08 63.4L16.82 63.91L17.54 64.46L18.25 65.03L18.95 65.63L19.63 66.25L20.3 66.89L20.97 67.54L21.63 68.2L22.28 68.87L22.93 69.55L23.57 70.23L24.21 70.9L24.85 71.57L25.48 72.24L26.12 72.89L26.76 73.52L27.35 74.1L27.94 74.68L28.53 75.27L29.12 75.85L29.7 76.45L30.28 77.05L30.85 77.65L31.41 78.27L31.97 78.89L32.51 79.52L33.04 80.15L33.56 80.8L34.07 81.46L34.56 82.12L35.04 82.8L35.5 83.49L35.98 83.42L36.46 83.35L36.94 83.28L37.42 83.21L37.9 83.14L38.38 83.07L38.86 83.01L39.34 82.95L39.82 82.89L40.3 82.83L40.77 82.78L41.25 82.73L41.73 82.68L42.21 82.64L42.69 82.59L43.17 82.56L42.96 82.37L42.76 82.18L42.55 81.99L42.35 81.8L42.14 81.61L41.93 81.42L41.52 81.04L41.32 80.85L41.11 80.66L40.9 80.47L40.7 80.28L40.49 80.09L40.29 79.9L40.08 79.71L39.88 79.52L38.41 78.18L36.89 76.83L35.33 75.47L33.73 74.09L32.12 72.69L30.5 71.28L28.88 69.85L27.28 68.4L25.71 66.92L24.17 65.41L22.69 63.88L21.28 62.32L19.93 60.73L18.68 59.1L17.53 57.44L16.48 55.74L16.46 56.22L16.43 56.7ZM27.88 23.94L27.79 23.96L27.7 23.98L27.61 23.99L27.52 24.01L27.43 24.03L27.34 24.04L27.25 24.06L27.16 24.07L27.07 24.09L26.99 24.1L26.9 24.12L26.81 24.13L26.72 24.15L26.63 24.16L26.54 24.18L26.45 24.19L26.36 24.2L26.28 24.22L26.19 24.23L26.1 24.25L26.01 24.26L25.92 24.27L25.83 24.29L25.74 24.3L26.59 25.15L27.44 25.99L28.29 26.84L29.14 27.69L29.98 28.54L30.83 29.39L31.67 30.24L32.52 31.09L33.36 31.95L34.21 32.8L35.06 33.65L35.9 34.5L36.75 35.35L37.6 36.2L38.45 37.05L39.3 37.9L40.16 38.74L41.02 39.58L41.88 40.42L42.74 41.26L43.6 42.09L44.47 42.92L45.34 43.75L46.22 44.57L47.1 45.39L47.98 46.2L48.93 47.08L49.88 47.95L50.83 48.83L51.77 49.71L52.72 50.6L53.65 51.48L54.59 52.38L55.52 53.27L56.44 54.18L57.36 55.08L58.28 56L59.18 56.91L60.08 57.84L60.98 58.77L61.86 59.71L62.74 60.66L63.61 61.61L64.47 62.57L65.32 63.54L66.16 64.52L66.98 65.51L67.8 66.51L68.61 67.52L69.4 68.54L70.18 69.56L70.94 70.6L70.93 70.23L70.91 69.86L70.9 69.48L70.88 69.11L70.87 68.73L70.85 68.36L70.83 67.99L70.82 67.61L70.8 67.24L70.79 66.86L70.78 66.49L70.76 66.12L70.75 65.74L70.73 65.37L70.72 64.99L70.71 64.62L70.69 64.25L70.68 63.87L70.67 63.5L70.66 63.12L70.65 62.75L70.63 62.38L70.62 62L70.61 61.63L70.6 61.26L70.59 60.88L69.63 60.09L68.66 59.3L67.71 58.5L66.75 57.7L65.8 56.89L64.85 56.08L63.91 55.26L62.97 54.44L62.03 53.62L61.09 52.79L60.16 51.96L59.23 51.13L58.3 50.3L57.37 49.46L56.44 48.62L55.51 47.78L54.59 46.95L53.66 46.11L52.74 45.27L51.82 44.43L50.89 43.59L49.97 42.75L49.04 41.91L48.12 41.08L47.19 40.24L46.26 39.41L45.63 38.85L44.98 38.29L44.31 37.73L43.63 37.17L42.93 36.6L42.23 36.04L41.51 35.47L40.78 34.89L40.05 34.32L39.32 33.74L38.57 33.16L37.83 32.58L37.09 31.99L36.34 31.4L35.6 30.8L34.87 30.2L34.14 29.6L33.41 28.99L32.7 28.37L31.99 27.75L31.3 27.13L30.62 26.49L29.95 25.86L29.3 25.21L28.67 24.56L28.06 23.91L27.97 23.92L27.88 23.94ZM43.72 20.58L43.66 20.59L43.6 20.59L43.54 20.6L43.47 20.6L43.41 20.61L43.35 20.62L43.23 20.63L43.17 20.63L43.1 20.64L43.04 20.64L42.98 20.65L42.92 20.65L42.86 20.66L42.8 20.67L42.74 20.67L42.67 20.68L42.61 20.69L42.31 20.72L42.01 20.76L41.71 20.8L41.41 20.85L41.11 20.89L40.8 20.94L40.49 21L40.19 21.05L39.88 21.11L39.57 21.17L39.26 21.23L38.95 21.3L38.64 21.36L38.32 21.43L38.01 21.5L37.7 21.57L37.38 21.64L37.07 21.72L36.75 21.79L36.44 21.87L37.17 22.53L37.89 23.21L38.61 23.9L39.33 24.61L40.04 25.32L40.74 26.04L41.44 26.77L42.13 27.5L42.81 28.24L43.49 28.97L44.16 29.7L44.83 30.42L45.49 31.13L46.14 31.84L46.78 32.53L47.42 33.21L48.05 33.87L48.67 34.51L49.28 35.13L49.89 35.73L50.91 36.71L51.93 37.7L52.95 38.68L53.98 39.67L55 40.65L56.03 41.63L57.05 42.61L58.08 43.58L59.11 44.56L60.14 45.54L61.17 46.51L62.2 47.48L63.24 48.46L64.27 49.43L65.3 50.41L66.33 51.38L67.36 52.35L68.4 53.33L69.43 54.3L70.46 55.27L70.45 54.69L70.44 54.1L70.44 53.52L70.43 52.93L70.42 52.35L70.42 51.76L70.41 51.17L70.41 50.59L70.41 50L70.4 49.42L70.4 48.83L70.4 48.25L70.4 47.66L70.4 47.08L70.4 46.49L70.41 45.91L70.41 45.32L70.42 44.74L70.42 44.15L70.43 43.56L70.32 43.59L70.22 43.61L70.11 43.63L70.01 43.64L69.9 43.65L69.8 43.65L69.69 43.65L69.59 43.64L69.49 43.62L69.38 43.6L69.28 43.58L69.18 43.54L69.08 43.5L68.98 43.46L68.89 43.41L68.79 43.35L68.7 43.28L68.61 43.2L68.52 43.12L68.44 43.03L67.7 42.21L66.96 41.39L66.21 40.57L65.45 39.77L64.69 38.97L63.92 38.17L63.14 37.38L62.35 36.6L61.57 35.82L60.77 35.05L59.97 34.28L59.17 33.52L58.36 32.76L57.54 32.01L56.73 31.26L55.91 30.52L55.08 29.78L54.26 29.04L53.43 28.31L52.59 27.59L52.17 27.22L51.75 26.86L51.32 26.51L50.89 26.15L50.45 25.8L50.02 25.45L49.58 25.11L49.14 24.76L48.69 24.41L48.25 24.07L47.8 23.72L47.36 23.38L46.91 23.03L46.47 22.68L46.03 22.34L45.58 21.99L45.15 21.64L44.71 21.28L44.27 20.93L43.84 20.57L43.78 20.58L43.72 20.58ZM58.66 19.42L57.93 19.46L57.19 19.51L56.45 19.55L55.71 19.6L54.97 19.65L54.23 19.7L53.5 19.74L52.76 19.8L52.02 19.85L52.41 20.22L52.8 20.6L53.19 20.97L53.57 21.34L53.96 21.72L54.34 22.09L54.72 22.46L55.1 22.82L55.48 23.18L55.85 23.54L56.23 23.89L57.6 25.17L58.95 26.45L60.3 27.75L61.64 29.06L62.96 30.38L64.27 31.71L65.56 33.06L66.83 34.43L68.08 35.82L69.3 37.23L70.5 38.67L70.52 37.92L70.54 37.17L70.57 36.43L70.59 35.68L70.62 34.93L70.65 34.19L70.68 33.44L70.71 32.7L70.74 31.95L70.78 31.2L70.81 30.46L70.78 30.44L70.75 30.42L70.72 30.4L70.69 30.38L70.66 30.36L70.63 30.33L70.6 30.31L70.57 30.29L70.55 30.26L70.52 30.23L70.49 30.2L69.77 29.31L69.04 28.43L68.3 27.56L67.56 26.69L66.8 25.83L66.03 24.98L65.25 24.15L64.46 23.32L63.66 22.5L62.84 21.7L62.01 20.92L61.85 20.77L61.68 20.62L61.51 20.47L61.35 20.33L61.18 20.18L61.01 20.04L60.83 19.89L60.66 19.75L60.49 19.61L60.32 19.47L60.14 19.33L59.4 19.37L58.66 19.42ZM68.52 18.77L67 18.87L65.47 18.97L66.94 20.57L68.35 22.21L69.74 23.88L71.09 25.58L71.2 23.82L71.31 22.07L71.43 20.31L71.57 18.55L70.05 18.67L68.52 18.77Z" id="a1EZWiEAWw"></path></defs><g><g><g><use xlink:href="#bbm4K6AJ6v" opacity="1" fill="#000000" fill-opacity="1"></use><g><use xlink:href="#bbm4K6AJ6v" opacity="1" fill-opacity="0" stroke="#000000" stroke-width="1" stroke-opacity="0"></use></g></g><g><use xlink:href="#a1EZWiEAWw" opacity="1" fill="#000000" fill-opacity="1"></use><g><use xlink:href="#a1EZWiEAWw" opacity="1" fill-opacity="0" stroke="#000000" stroke-width="1" stroke-opacity="0"></use></g></g></g></g></svg>